<!DOCTYPE svg PUBLIC "-//W3C//DTD SVG 1.1//EN" "http://www.w3.org/Graphics/SVG/1.1/DTD/svg11.dtd">
<!-- Uploaded to: SVG Repo, www.svgrepo.com, Transformed by: SVG Repo Mixer Tools -->
<svg fill="#000000" version="1.1" id="Capa_1" xmlns="http://www.w3.org/2000/svg" xmlns:xlink="http://www.w3.org/1999/xlink" width="800px" height="800px" viewBox="0 0 52.333 52.333" xml:space="preserve">
<g id="SVGRepo_bgCarrier" stroke-width="0"/>
<g id="SVGRepo_tracerCarrier" stroke-linecap="round" stroke-linejoin="round"/>
<g id="SVGRepo_iconCarrier"> <g> <g> <path d="M17.839,46.996h33.494c0.554,0,1-0.447,1-1V6.337c0-0.553-0.446-1-1-1H1c-0.553,0-1,0.447-1,1v22.246v3.943v13.469 c0,0.553,0.447,1,1,1h12.843H17.839z M2,32.527v-3.943V7.337h48.333v37.658H17.839h-3.996H2V32.527z"/> <path d="M21.13,43.968h27.281c0.553,0,1-0.447,1-1V13.366c0-0.553-0.447-1-1-1H3.921c-0.553,0-1,0.447-1,1v12.041v6.634v10.928 c0,0.553,0.447,1,1,1H14.48H21.13z M4.921,32.041v-6.634V14.366h42.49v27.603H21.13h-6.65H4.921V32.041z"/> <path d="M47.294,10.884h1.166c0.554,0,1-0.447,1-1c0-0.553-0.446-1-1-1h-1.166c-0.553,0-1,0.447-1,1 C46.294,10.438,46.742,10.884,47.294,10.884z"/> <path d="M37.294,10.884h1.166c0.554,0,1-0.447,1-1c0-0.553-0.446-1-1-1h-1.166c-0.553,0-1,0.447-1,1 C36.294,10.438,36.742,10.884,37.294,10.884z"/> <path d="M42.294,10.884h1.166c0.554,0,1-0.447,1-1c0-0.553-0.446-1-1-1h-1.166c-0.553,0-1,0.447-1,1 C41.294,10.438,41.742,10.884,42.294,10.884z"/> <path d="M20.267,33.884c0.332,0,0.657-0.165,0.848-0.468c0.294-0.468,0.153-1.085-0.314-1.379l-6.189-3.894l6.189-3.893 c0.468-0.294,0.608-0.911,0.314-1.379c-0.294-0.468-0.912-0.606-1.379-0.314l-7.5,4.716c-0.259,0.162-0.405,0.426-0.445,0.705 c-0.011,0.057-0.004,0.108-0.006,0.164c0.002,0.057-0.005,0.108,0.006,0.164c0.04,0.28,0.187,0.543,0.445,0.705l7.5,4.717 C19.901,33.834,20.085,33.884,20.267,33.884z"/> <path d="M31.219,33.461c0.19,0.304,0.516,0.468,0.848,0.468c0.183,0,0.367-0.05,0.531-0.152l7.5-4.717 c0.26-0.162,0.405-0.426,0.445-0.705c0.012-0.057,0.004-0.108,0.005-0.164c-0.001-0.057,0.007-0.108-0.005-0.164 c-0.04-0.28-0.188-0.543-0.445-0.705l-7.5-4.717c-0.465-0.293-1.084-0.153-1.379,0.314c-0.293,0.468-0.152,1.085,0.314,1.379 l6.189,3.894l-6.189,3.893C31.066,32.376,30.926,32.994,31.219,33.461z"/> <path d="M24.478,33.841c0.097,0.029,0.194,0.043,0.29,0.043c0.43,0,0.826-0.277,0.957-0.71l2.875-9.479 c0.16-0.528-0.139-1.087-0.667-1.247c-0.529-0.16-1.087,0.139-1.247,0.667l-2.875,9.479C23.651,33.123,23.95,33.681,24.478,33.841 z"/> </g> </g> </g>
</svg>